<svg version="1.1" id="Layer_1" xmlns="http://www.w3.org/2000/svg" xmlns:xlink="http://www.w3.org/1999/xlink" x="0px" y="0px"
	 width="100%" viewBox="190 102 300 169" enable-background="new 0 0 677 369" xml:space="preserve">

<path fill="#2B6846" opacity="1.000000" stroke="none" 
	d="
M291.977631,123.197906 
	C292.426758,123.151962 292.875854,123.106010 293.839172,123.204971 
	C294.913879,122.994499 295.474396,122.639114 296.034912,122.283722 
	C299.393219,122.227745 302.751556,122.171776 306.669128,122.254181 
	C307.228363,122.392555 307.622162,122.448112 307.622162,122.448112 
	C307.622162,122.448112 307.971313,122.241913 307.971313,122.241913 
	C308.428497,122.219925 308.885712,122.197945 309.831726,122.355392 
	C310.534637,122.736473 310.780731,122.885201 311.058838,122.981018 
	C311.058838,122.981018 311.522888,123.059860 311.869659,123.421402 
	C313.513763,123.765396 314.811096,123.747864 316.108429,123.730331 
	C320.764740,126.488045 325.442810,129.210159 330.061676,132.029266 
	C331.174927,132.708740 332.145569,133.654541 333.089081,134.573120 
	C335.504852,136.925125 337.494812,140.095078 334.564270,142.633621 
	C331.524109,145.267136 329.146362,142.292389 326.779510,139.969009 
	C321.383392,134.671982 314.953735,130.844284 307.314850,130.025070 
	C278.248596,126.907867 261.960754,152.918533 266.828064,176.983475 
	C269.154510,188.485825 275.820709,196.526901 284.738953,202.355118 
	C292.842407,207.650848 302.494598,208.532272 312.248657,205.429626 
	C324.526886,201.524048 331.282623,191.855820 338.098785,182.031525 
	C341.960388,176.465668 344.448578,169.596893 351.116669,166.487503 
	C356.071075,164.177216 361.263641,162.377686 367.078766,160.175537 
	C368.548431,160.048569 369.289490,160.096725 370.261047,160.370209 
	C371.991302,160.453217 373.490967,160.310898 375.365295,160.097961 
	C376.498047,160.067703 377.256134,160.108047 378.338135,160.359283 
	C381.437195,160.427353 384.212341,160.284515 387.362366,160.068787 
	C388.495972,160.046082 389.254669,160.096268 390.301422,160.348602 
	C392.379547,160.423965 394.169678,160.297195 396.308350,160.082855 
	C397.364319,159.875839 398.071716,159.756378 398.953857,159.848816 
	C399.760864,159.776611 400.393219,159.492508 401.025543,159.208389 
	C404.734924,158.131760 408.444305,157.055130 412.433502,155.897293 
	C409.636139,164.712219 407.499756,166.523636 399.065247,167.001266 
	C397.232056,167.297180 396.151001,167.567154 395.069946,167.837128 
	C394.881775,167.864990 394.693604,167.892838 393.881622,167.667603 
	C384.861969,167.566696 376.466125,167.718842 368.070282,167.871002 
	C364.132294,169.751434 360.167297,171.577698 356.262268,173.524261 
	C349.442322,176.923904 346.291840,183.618210 342.795868,189.662750 
	C333.837830,205.151245 321.017822,214.589584 302.972351,214.762253 
	C289.177460,214.894226 277.548218,209.727631 267.933289,198.745560 
	C256.225342,185.372803 254.019989,156.833908 266.040558,141.020432 
	C272.129028,133.010895 279.344391,125.746971 290.743408,123.909225 
	C291.586121,123.633354 291.800018,123.435234 291.977631,123.197906 
z"/>
<path fill="#2B6846" opacity="1.000000" stroke="none" 
	d="
M377.134796,136.251358 
	C369.545563,138.492981 364.550964,143.714783 361.378754,150.652863 
	C358.893982,156.087433 356.159149,161.110748 349.778107,163.916672 
	C349.489746,162.673050 348.638306,161.216003 349.000214,160.184738 
	C350.713196,155.303558 352.233612,150.231155 354.825409,145.815445 
	C357.639587,141.020859 361.003174,136.219940 365.184967,132.666733 
	C368.224365,130.084213 372.911041,128.553879 376.989655,128.249802 
	C388.529877,127.389420 400.133759,127.212677 411.715149,127.130974 
	C420.372864,127.069901 427.380981,123.111214 435.053345,119.083191 
	C432.995544,117.559128 431.598480,116.524445 429.015991,114.611778 
	C436.216888,112.067711 442.424988,109.812820 448.706696,107.786041 
	C449.151306,107.642586 450.866852,109.307472 450.759583,109.913338 
	C449.674347,116.041473 448.359680,122.130219 447.011536,128.208313 
	C446.900879,128.707169 446.071808,129.046677 445.198242,129.776184 
	C443.704041,128.211731 442.287781,126.728874 440.997589,125.378021 
	C430.926788,132.164627 419.896973,135.186951 407.123596,134.721588 
	C397.504578,134.343414 388.672607,134.122757 379.840851,134.131958 
	C378.938110,134.132904 378.036774,135.511856 377.134796,136.251358 
z"/>
<path fill="#1C211B" opacity="1.000000" stroke="none" 
	d="
M462.960327,249.813263 
	C461.316162,253.768295 459.983734,257.524048 458.276093,261.100677 
	C457.728210,262.248199 456.287903,263.360474 455.063538,263.636902 
	C454.406586,263.785248 452.897003,262.282654 452.531342,261.254883 
	C449.919495,253.914093 447.503265,246.503708 444.958435,238.917419 
	C448.156006,237.343323 449.758392,238.613068 450.654114,241.429291 
	C452.067535,245.873276 453.461578,250.323441 454.863800,254.770996 
	C455.319489,254.753998 455.775177,254.737000 456.230865,254.720001 
	C457.813477,250.519333 459.278503,246.268417 461.040802,242.144547 
	C461.679047,240.650909 463.028534,239.461212 464.053497,238.132843 
	C465.303925,239.398727 467.082825,240.451019 467.698212,241.973572 
	C469.118774,245.488419 469.929230,249.245987 471.088440,252.872742 
	C471.429840,253.940857 472.110382,254.900543 472.792816,256.212250 
	C475.537323,249.473145 477.937012,243.489975 480.479401,237.568024 
	C480.628113,237.221619 481.929474,237.370041 483.973602,237.151276 
	C482.618591,240.735779 481.401245,243.493835 480.533234,246.357773 
	C479.141876,250.948318 478.241150,255.704468 476.589264,260.190338 
	C475.977417,261.851898 473.830811,262.948303 472.384155,264.302429 
	C471.219330,262.875610 469.620972,261.620728 468.973511,259.988617 
	C467.246155,255.634399 465.927643,251.117966 463.501099,246.853867 
	C463.376282,247.750748 463.251434,248.647644 462.960327,249.813263 
z"/>
<path fill="#1C211B" opacity="1.000000" stroke="none" 
	d="
M417.330872,245.925903 
	C421.812836,238.566254 428.844360,235.907181 436.632935,238.285843 
	C440.266144,239.395432 443.983704,245.824936 443.970795,250.976639 
	C443.950745,258.982605 441.290833,261.803040 431.146240,264.575439 
	C427.184937,265.657990 420.033112,262.313293 418.228485,257.462036 
	C416.972717,254.086334 417.481689,250.054153 417.330872,245.925903 
M438.306183,256.571686 
	C438.565521,255.622330 438.835236,254.675644 439.082458,253.723145 
	C440.634674,247.742661 437.532227,242.236145 432.029602,241.196777 
	C427.740082,240.386551 421.682037,243.897598 421.054169,247.557785 
	C419.808411,254.819809 423.166687,260.100372 429.772034,260.130157 
	C432.422882,260.142120 435.082825,258.153351 438.306183,256.571686 
z"/>
<path fill="#191F19" opacity="1.000000" stroke="none" 
	d="
M223.916992,242.102722 
	C228.216324,238.031967 238.021332,235.793762 241.394653,238.291473 
	C246.422104,242.013977 250.157532,248.072784 248.038116,254.995010 
	C246.349396,260.510590 240.611954,264.821075 234.766190,264.910645 
	C229.500885,264.991272 223.232239,261.428375 222.358765,256.202942 
	C221.625153,251.814301 223.179169,247.043274 223.916992,242.102722 
M242.717010,256.075684 
	C243.261307,253.209122 245.045135,249.796173 244.075684,247.596893 
	C242.384537,243.760391 239.155136,240.407974 233.976913,241.064423 
	C229.020264,241.692780 226.498108,245.099426 225.247772,249.409409 
	C224.061401,253.498978 226.779190,258.048187 231.350464,260.106689 
	C235.931824,262.169739 239.204742,259.771240 242.717010,256.075684 
z"/>
<path fill="#191F19" opacity="1.000000" stroke="none" 
	d="
M252.958099,238.963409 
	C255.798843,236.881927 257.412048,238.607849 258.965088,240.822525 
	C261.228027,244.049438 263.480377,247.292801 265.932373,250.373871 
	C266.975464,251.684586 268.512238,252.602448 271.022064,254.699188 
	C271.022064,249.354233 271.023468,245.481857 271.021545,241.609467 
	C271.020355,239.238739 271.464844,237.270798 274.796265,238.349854 
	C275.047058,246.969116 275.052094,254.899384 275.057129,262.829651 
	C272.374390,264.767670 270.859985,264.411346 268.932861,261.262909 
	C265.916779,256.335480 261.933990,251.999802 258.360748,247.413452 
	C257.908813,247.488312 257.456848,247.563187 257.004913,247.638046 
	C257.004913,251.464645 257.220398,255.309204 256.903778,259.109436 
	C256.768372,260.734772 255.524277,262.267731 254.377777,263.546021 
	C253.636627,262.491211 253.301666,261.733124 252.966705,260.975006 
	C252.960358,260.239136 252.953995,259.503296 253.209869,258.065735 
	C253.300751,251.230515 253.129425,245.096970 252.958099,238.963409 
z"/>
<path fill="#191F19" opacity="1.000000" stroke="none" 
	d="
M347.966705,260.930817 
	C347.452606,262.033936 346.938507,263.137054 346.424408,264.240173 
	C345.340363,263.567047 343.991241,263.114563 343.216461,262.183960 
	C339.060516,257.192200 335.047546,252.081375 329.996490,245.777771 
	C329.996490,251.136551 330.231415,255.047577 329.886719,258.906860 
	C329.738373,260.567596 328.388519,262.120972 327.214081,263.315033 
	C326.838837,254.659286 326.834076,246.411667 326.829285,238.164032 
	C331.777954,238.970215 333.597107,243.333817 336.372284,246.594574 
	C338.242126,248.791519 340.019592,251.067047 341.838409,253.307419 
	C342.437744,253.150345 343.037109,252.993271 343.636444,252.836182 
	C343.773407,248.165512 343.910339,243.494858 344.487335,238.415176 
	C345.622772,239.340256 346.815826,240.633804 346.928314,242.015350 
	C347.440613,248.306976 347.648987,254.623352 347.966705,260.930817 
z"/>
<path fill="#191F19" opacity="1.000000" stroke="none" 
	d="
M199.324341,241.384888 
	C204.436234,239.921265 209.230179,238.305084 214.139587,237.790314 
	C215.589035,237.638321 217.364639,240.597046 219.619034,242.722595 
	C214.213654,242.366669 210.358963,241.432251 206.763336,242.037354 
	C201.516510,242.920334 199.423294,248.796951 201.515717,254.861084 
	C203.364822,260.220062 207.090805,261.694153 212.530167,259.659607 
	C214.461990,258.937073 216.740875,259.142365 218.861328,258.924103 
	C217.060089,260.600037 215.535156,263.094696 213.410294,263.811859 
	C203.586472,267.127625 194.580780,258.739716 196.719086,248.477554 
	C197.205688,246.142242 198.258392,243.924896 199.324341,241.384888 
z"/>
<path fill="#1C211B" opacity="1.000000" stroke="none" 
	d="
M302.832825,238.113754 
	C308.757172,238.113754 314.681519,238.113754 320.605865,238.113754 
	C320.590973,239.076660 320.576080,240.039566 320.561188,241.002472 
	C317.275970,241.002472 313.988190,241.083237 310.706360,240.977966 
	C307.871338,240.887024 305.928619,241.285522 305.927582,244.924072 
	C305.926544,248.438248 307.620209,249.086853 310.579956,249.019150 
	C312.873444,248.966675 315.177032,249.355301 317.476105,249.547852 
	C317.461792,250.205353 317.447449,250.862839 317.433105,251.520340 
	C315.138000,251.684921 312.828705,252.091675 310.551117,251.957840 
	C307.058350,251.752655 305.938202,253.149597 305.916229,256.597534 
	C305.892975,260.249664 307.460358,261.219604 310.741852,261.043945 
	C314.012604,260.868805 317.300018,261.005524 320.580139,261.005524 
	C320.595795,261.978516 320.611450,262.951538 320.627106,263.924530 
	C315.011841,263.924530 309.396545,263.924530 303.333069,263.442078 
	C302.867523,254.677673 302.850159,246.395706 302.832825,238.113754 
z"/>
<path fill="#161B15" opacity="1.000000" stroke="none" 
	d="
M394.462219,239.288300 
	C391.040283,240.101791 387.698883,240.852570 384.340820,240.936127 
	C381.163361,241.015198 379.915710,242.071075 379.902069,245.335678 
	C379.887970,248.709183 380.934509,250.308701 384.497925,250.029724 
	C387.048859,249.830017 389.628082,249.990891 392.194672,249.990891 
	C392.290253,250.670105 392.385803,251.349304 392.481384,252.028519 
	C390.650940,252.356018 388.826660,252.920670 386.988922,252.968582 
	C380.251099,253.144302 380.249451,253.079605 379.988983,259.677551 
	C379.832214,263.648499 379.832184,263.648499 376.005310,263.337585 
	C376.005310,256.712036 376.261292,250.084137 375.916992,243.487579 
	C375.679840,238.943802 377.438568,237.500153 381.700836,237.959427 
	C385.964569,238.418839 390.256104,238.619827 394.462219,239.288300 
z"/>
<path fill="#161B15" opacity="1.000000" stroke="none" 
	d="
M399.585693,238.113754 
	C403.351288,237.158875 402.930756,239.709534 402.965149,241.592316 
	C403.053284,246.418457 403.152863,251.255005 402.930328,256.072723 
	C402.763733,259.679260 403.936523,261.364807 407.737762,261.036102 
	C410.268951,260.817200 412.834442,260.994537 415.720337,260.994537 
	C413.430939,264.302399 405.095032,265.094330 398.034576,263.110687 
	C398.034576,255.711960 397.995483,248.278107 398.087250,240.845886 
	C398.097961,239.979218 398.832062,239.121490 399.585693,238.113754 
z"/>
<path fill="#191F19" opacity="1.000000" stroke="none" 
	d="
M286.124023,237.999939 
	C290.586487,238.001572 294.575470,238.001572 298.564484,238.001572 
	C298.623444,238.544647 298.682434,239.087738 298.741394,239.630814 
	C298.007812,240.079681 297.211670,240.992554 296.550537,240.903473 
	C291.558258,240.230865 290.677277,242.874207 290.918549,247.085510 
	C291.175079,251.562851 291.075928,256.071777 290.878204,260.555725 
	C290.831543,261.613892 289.768036,262.627258 289.172302,263.661224 
	C288.457703,262.582977 287.240295,261.555023 287.126312,260.416656 
	C286.829437,257.450867 287.012909,254.436630 287.010986,251.441711 
	C287.004791,241.915695 287.005859,241.915695 278.396912,239.883743 
	C278.334625,239.439880 278.272339,238.996017 278.210022,238.552155 
	C280.690186,238.367523 283.170349,238.182907 286.124023,237.999939 
z"/>
<path fill="#161B15" opacity="1.000000" stroke="none" 
	d="
M363.155304,263.911072 
	C362.031342,263.820740 360.907379,263.730408 359.372498,263.607025 
	C359.372498,256.073517 359.372498,248.753723 359.372498,240.851257 
	C355.700989,240.851257 352.667755,240.851257 349.634491,240.851257 
	C349.539581,240.419846 349.444672,239.988449 349.349762,239.557037 
	C350.552643,239.065674 351.728760,238.239151 352.963043,238.140442 
	C358.559875,237.692825 364.171448,237.321136 369.782013,237.246490 
	C370.869415,237.232025 371.976105,238.665207 373.073883,239.430618 
	C372.893280,239.956299 372.712677,240.481995 372.532074,241.007675 
	C370.296600,241.007675 368.061127,241.007675 365.255432,240.620300 
	C364.126373,241.160736 363.095978,242.082489 363.083923,243.017349 
	C362.994263,249.980469 363.106445,256.946167 363.155304,263.911072 
z"/>
<path fill="#26583E" opacity="1.000000" stroke="none" 
	d="
M377.521606,136.164032 
	C378.036774,135.511856 378.938110,134.132904 379.840851,134.131958 
	C388.672607,134.122757 397.504578,134.343414 406.668243,134.747467 
	C400.103790,135.321167 393.208679,135.673218 386.310791,135.957794 
	C383.513123,136.073196 380.709412,136.041473 377.521606,136.164032 
z"/>
<path fill="#D8EADD" opacity="1.000000" stroke="none" 
	d="
M398.779144,159.636917 
	C398.071716,159.756378 397.364319,159.875839 395.887482,160.020538 
	C393.416504,160.079346 391.714966,160.112900 390.013397,160.146454 
	C389.254669,160.096268 388.495972,160.046082 386.916748,160.006226 
	C383.402252,160.060516 380.708252,160.104446 378.014252,160.148407 
	C377.256134,160.108047 376.498047,160.067703 374.954834,160.037262 
	C372.790009,160.079742 371.410278,160.112320 370.030518,160.144897 
	C369.289490,160.096725 368.548431,160.048569 367.433655,160.006622 
	C368.168793,159.670090 369.275970,159.036972 370.386871,159.030411 
	C379.517181,158.976471 388.648193,159.039001 398.195709,159.252151 
	C398.612427,159.438110 398.779144,159.636917 398.779144,159.636917 
z"/>
<path fill="#949793" opacity="1.000000" stroke="none" 
	d="
M347.977234,260.466797 
	C347.648987,254.623352 347.440613,248.306976 346.928314,242.015350 
	C346.815826,240.633804 345.622772,239.340256 344.502167,237.943726 
	C345.177551,237.522079 346.278137,237.162872 347.987732,236.604889 
	C347.987732,244.897354 347.987732,252.450058 347.977234,260.466797 
z"/>
<path fill="#4C735B" opacity="1.000000" stroke="none" 
	d="
M368.531067,167.926743 
	C376.466125,167.718842 384.861969,167.566696 393.597778,167.638458 
	C385.622467,167.902420 377.307190,167.942459 368.531067,167.926743 
z"/>
<path fill="#949793" opacity="1.000000" stroke="none" 
	d="
M302.524933,238.389282 
	C302.850159,246.395706 302.867523,254.677673 302.854492,263.419464 
	C302.621765,255.474472 302.419403,247.069641 302.524933,238.389282 
z"/>
<path fill="#4C735B" opacity="1.000000" stroke="none" 
	d="
M326.563660,238.466095 
	C326.834076,246.411667 326.838837,254.659286 326.823639,263.361725 
	C326.635162,255.467072 326.466614,247.117599 326.563660,238.466095 
z"/>
<path fill="#D8EADD" opacity="1.000000" stroke="none" 
	d="
M275.458038,262.675415 
	C275.052094,254.899384 275.047058,246.969116 275.037689,238.577515 
	C275.342346,241.424484 275.828766,244.728012 275.918243,248.042267 
	C276.048492,252.864517 275.892731,257.694519 275.458038,262.675415 
z"/>
<path fill="#B3B6B0" opacity="1.000000" stroke="none" 
	d="
M363.514923,263.685577 
	C363.106445,256.946167 362.994263,249.980469 363.083923,243.017349 
	C363.095978,242.082489 364.126373,241.160736 364.813538,240.604736 
	C364.623657,245.314423 364.233246,249.648621 364.011169,253.991425 
	C363.850098,257.141724 363.912048,260.303436 363.514923,263.685577 
z"/>
<path fill="#1C211B" opacity="1.000000" stroke="none" 
	d="
M252.952759,239.435638 
	C253.129425,245.096970 253.300751,251.230515 253.218475,257.697876 
	C252.959061,251.990402 252.953247,245.949142 252.952759,239.435638 
z"/>
<path fill="#26583E" opacity="1.000000" stroke="none" 
	d="
M315.847870,123.478378 
	C314.811096,123.747864 313.513763,123.765396 312.098358,123.476967 
	C313.182617,123.189476 314.384979,123.207954 315.847870,123.478378 
z"/>
<path fill="#26583E" opacity="1.000000" stroke="none" 
	d="
M295.743713,122.236382 
	C295.474396,122.639114 294.913879,122.994499 294.176697,123.176498 
	C294.484222,122.731758 294.968384,122.460403 295.743713,122.236382 
z"/>
<path fill="#4C735B" opacity="1.000000" stroke="none" 
	d="
M395.431030,167.884903 
	C396.151001,167.567154 397.232056,167.297180 398.660095,167.019501 
	C397.935455,167.318756 396.863800,167.625732 395.431030,167.884903 
z"/>
<path fill="#26583E" opacity="1.000000" stroke="none" 
	d="
M398.953857,159.848816 
	C398.779144,159.636917 398.612427,159.438110 398.640259,159.311234 
	C399.193420,159.153915 399.718750,159.123474 400.634827,159.150696 
	C400.393219,159.492508 399.760864,159.776611 398.953857,159.848816 
z"/>
<path fill="#1C211B" opacity="1.000000" stroke="none" 
	d="
M252.966125,261.305389 
	C253.301666,261.733124 253.636627,262.491211 253.978516,263.568787 
	C253.645477,263.137390 253.305511,262.386597 252.966125,261.305389 
z"/>
<path fill="#26583E" opacity="1.000000" stroke="none" 
	d="
M307.736023,122.193977 
	C307.971313,122.241913 307.622162,122.448112 307.622162,122.448112 
	C307.622162,122.448112 307.228363,122.392555 307.126343,122.299622 
	C307.024353,122.206688 307.500732,122.146042 307.736023,122.193977 
z"/>
<path fill="#26583E" opacity="1.000000" stroke="none" 
	d="
M291.746582,123.231812 
	C291.800018,123.435234 291.586121,123.633354 291.136536,123.886444 
	C291.039612,123.669197 291.232422,123.430901 291.746582,123.231812 
z"/>
<path fill="#26583E" opacity="1.000000" stroke="none" 
	d="
M310.954041,122.771759 
	C310.780731,122.885201 310.534637,122.736473 310.174652,122.375809 
	C310.375031,122.159225 310.648529,122.274452 310.954041,122.771759 
z"/>
<path fill="#26583E" opacity="1.000000" stroke="none" 
	d="
M378.338135,160.359283 
	C380.708252,160.104446 383.402252,160.060516 386.541870,160.079132 
	C384.212341,160.284515 381.437195,160.427353 378.338135,160.359283 
z"/>
<path fill="#26583E" opacity="1.000000" stroke="none" 
	d="
M370.261047,160.370209 
	C371.410278,160.112320 372.790009,160.079742 374.580200,160.107880 
	C373.490967,160.310898 371.991302,160.453217 370.261047,160.370209 
z"/>
<path fill="#26583E" opacity="1.000000" stroke="none" 
	d="
M390.301422,160.348602 
	C391.714966,160.112900 393.416504,160.079346 395.538940,160.108093 
	C394.169678,160.297195 392.379547,160.423965 390.301422,160.348602 
z"/>
<path fill="#000000" opacity="1.000000" stroke="none" 
	d="
M438.022400,256.823456 
	C435.082825,258.153351 432.422882,260.142120 429.772034,260.130157 
	C423.166687,260.100372 419.808411,254.819809 421.054169,247.557785 
	C421.682037,243.897598 427.740082,240.386551 432.029602,241.196777 
	C437.532227,242.236145 440.634674,247.742661 439.082458,253.723145 
	C438.835236,254.675644 438.565521,255.622330 438.022400,256.823456 
z"/>
<path fill="#000000" opacity="1.000000" stroke="none" 
	d="
M242.414001,256.299866 
	C239.204742,259.771240 235.931824,262.169739 231.350464,260.106689 
	C226.779190,258.048187 224.061401,253.498978 225.247772,249.409409 
	C226.498108,245.099426 229.020264,241.692780 233.976913,241.064423 
	C239.155136,240.407974 242.384537,243.760391 244.075684,247.596893 
	C245.045135,249.796173 243.261307,253.209122 242.414001,256.299866 
z"/>
</svg>