<svg version="1.1" id="Layer_1" xmlns="http://www.w3.org/2000/svg" xmlns:xlink="http://www.w3.org/1999/xlink" x="0px" y="0px"
	 width="100%" viewBox="281 146 137 80" enable-background="new 0 0 677 369" xml:space="preserve">

<path fill="#406E4D" opacity="1.000000" stroke="none" 
	d="
M362.167542,164.021851 
	C366.908356,162.201416 371.170959,162.250854 375.941315,162.696671 
	C383.974030,163.447372 392.325043,163.161911 399.815948,158.273193 
	C397.240753,155.778427 396.923157,153.503510 400.623169,152.406158 
	C404.805939,151.165604 409.110565,150.335815 414.585358,149.037292 
	C413.602356,154.519836 412.676514,159.683441 411.750671,164.847046 
	C411.209686,164.370499 410.668701,163.893951 410.127716,163.417389 
	C407.455933,164.054047 404.779297,164.671082 402.113434,165.331573 
	C397.036224,166.589493 392.025604,168.327362 386.873840,169.011261 
	C382.126404,169.641495 377.230133,169.141510 372.399445,169.155273 
	C361.579529,169.186127 358.065369,171.829163 355.159485,182.587219 
	C365.916382,185.524017 376.595184,183.860733 387.199402,181.845078 
	C387.699280,186.630203 385.017395,189.587036 379.890717,189.988647 
	C373.346222,190.501328 366.768036,190.966324 360.213440,190.864929 
	C352.953339,190.752609 348.738831,195.121307 345.027374,200.257751 
	C342.280518,204.059280 339.159149,207.829315 336.727173,211.483002 
	C332.721741,217.500519 327.630524,219.440079 321.704803,221.309158 
	C312.569153,224.190735 304.180176,221.276154 297.151855,216.261597 
	C288.873077,210.354858 283.688446,201.436859 284.264313,190.985901 
	C284.604767,184.807220 286.352692,178.703018 289.639832,172.673340 
	C296.420746,160.234970 315.082428,156.380173 324.785797,160.233765 
	C328.357117,161.652069 331.780487,163.891739 334.650421,166.452621 
	C336.273926,167.901276 336.636749,170.762711 337.637604,173.155716 
	C331.579315,175.336090 329.313232,170.919083 326.460358,168.776535 
	C316.960754,161.642227 299.648895,166.362930 294.816833,178.708038 
	C293.071960,183.165878 291.830261,187.212570 291.894745,192.150925 
	C292.118347,209.278122 306.965485,216.849075 318.785675,214.691269 
	C323.426392,213.844101 328.712341,211.022873 331.628601,207.420258 
	C337.169586,200.575333 342.118958,192.897247 345.497314,184.806610 
	C347.164642,180.813629 348.418304,176.608932 350.569519,172.672638 
	C353.118866,168.007980 356.852173,165.389648 362.167542,164.021851 
z"/>
</svg>